<?xml version="1.0"?>
<svg xmlns="http://www.w3.org/2000/svg" height="512px" viewBox="0 0 480 480" width="512px" class=""><g><path d="m8 480h400c4.417969 0 8-3.582031 8-8v-464c0-4.417969-3.582031-8-8-8h-400c-4.417969 0-8 3.582031-8 8v464c0 4.417969 3.582031 8 8 8zm8-464h384v448h-384zm0 0" data-original="#000000" class="active-path" data-old_color="#000000" fill="#FFFFFF"/><path d="m376 64h-336c-4.417969 0-8 3.582031-8 8v336c0 4.417969 3.582031 8 8 8h336c4.417969 0 8-3.582031 8-8v-336c0-4.417969-3.582031-8-8-8zm-328 128h96v96h-96zm112 0h96v96h-96zm112 0h96v96h-96zm96-16h-96v-96h96zm-112 0h-96v-96h96zm-208-96h96v96h-96zm0 224h96v96h-96zm112 0h96v96h-96zm208 96h-96v-96h96zm0 0" data-original="#000000" class="active-path" data-old_color="#000000" fill="#FFFFFF"/><path d="m125.65625 98.34375c-3.125-3.125-8.1875-3.125-11.3125 0l-18.34375 18.34375-18.34375-18.34375c-3.125-3.117188-8.183594-3.113281-11.304688.007812-3.121093 3.121094-3.125 8.179688-.007812 11.304688l18.34375 18.34375-18.34375 18.34375c-2.023438 2.019531-2.816406 4.96875-2.078125 7.730469.738281 2.765625 2.894531 4.921875 5.660156 5.660156 2.761719.738281 5.710938-.054687 7.730469-2.078125l18.34375-18.34375 18.34375 18.34375c3.125 3.117188 8.183594 3.113281 11.304688-.007812 3.121093-3.121094 3.125-8.179688.007812-11.304688l-18.34375-18.34375 18.34375-18.34375c3.125-3.125 3.125-8.1875 0-11.3125zm0 0" data-original="#000000" class="active-path" data-old_color="#000000" fill="#FFFFFF"/><path d="m237.65625 210.34375c-3.125-3.125-8.1875-3.125-11.3125 0l-18.34375 18.34375-18.34375-18.34375c-3.125-3.117188-8.183594-3.113281-11.304688.007812-3.121093 3.121094-3.125 8.179688-.007812 11.304688l18.34375 18.34375-18.34375 18.34375c-2.023438 2.019531-2.816406 4.96875-2.078125 7.730469.738281 2.765625 2.894531 4.921875 5.660156 5.660156 2.761719.738281 5.710938-.054687 7.730469-2.078125l18.34375-18.34375 18.34375 18.34375c3.125 3.117188 8.183594 3.113281 11.304688-.007812 3.121093-3.121094 3.125-8.179688.007812-11.304688l-18.34375-18.34375 18.34375-18.34375c3.125-3.125 3.125-8.1875 0-11.3125zm0 0" data-original="#000000" class="active-path" data-old_color="#000000" fill="#FFFFFF"/><path d="m290.34375 381.65625c3.125 3.125 8.1875 3.125 11.3125 0l18.34375-18.34375 18.34375 18.34375c3.125 3.117188 8.183594 3.113281 11.304688-.007812 3.121093-3.121094 3.125-8.179688.007812-11.304688l-18.34375-18.34375 18.34375-18.34375c3.117188-3.125 3.113281-8.183594-.007812-11.304688-3.121094-3.121093-8.179688-3.125-11.304688-.007812l-18.34375 18.34375-18.34375-18.34375c-3.125-3.117188-8.183594-3.113281-11.304688.007812-3.121093 3.121094-3.125 8.179688-.007812 11.304688l18.34375 18.34375-18.34375 18.34375c-3.125 3.125-3.125 8.1875 0 11.3125zm0 0" data-original="#000000" class="active-path" data-old_color="#000000" fill="#FFFFFF"/><path d="m479.757812 150.058594-16-64c-.890624-3.558594-4.089843-6.058594-7.757812-6.058594s-6.867188 2.5-7.757812 6.058594l-16 64c-.121094.640625-.203126 1.289062-.242188 1.941406v256c0 4.417969 3.582031 8 8 8h32c4.417969 0 8-3.582031 8-8v-256c-.039062-.652344-.121094-1.300781-.242188-1.941406zm-31.757812 9.941406h16v192h-16zm8-39.015625 5.75 23.015625h-11.5zm8 279.015625h-16v-32h16zm0 0" data-original="#000000" class="active-path" data-old_color="#000000" fill="#FFFFFF"/><path d="m376 32h-48c-4.417969 0-8 3.582031-8 8s3.582031 8 8 8h48c4.417969 0 8-3.582031 8-8s-3.582031-8-8-8zm0 0" data-original="#000000" class="active-path" data-old_color="#000000" fill="#FFFFFF"/><path d="m88 432h-48c-4.417969 0-8 3.582031-8 8s3.582031 8 8 8h48c4.417969 0 8-3.582031 8-8s-3.582031-8-8-8zm0 0" data-original="#000000" class="active-path" data-old_color="#000000" fill="#FFFFFF"/><path d="m96 216c-13.253906 0-24 10.746094-24 24s10.746094 24 24 24 24-10.746094 24-24c-.015625-13.25-10.75-23.984375-24-24zm0 32c-4.417969 0-8-3.582031-8-8s3.582031-8 8-8 8 3.582031 8 8c-.003906 4.417969-3.582031 7.996094-8 8zm0 0" data-original="#000000" class="active-path" data-old_color="#000000" fill="#FFFFFF"/><path d="m320 216c-13.253906 0-24 10.746094-24 24s10.746094 24 24 24 24-10.746094 24-24c-.015625-13.25-10.75-23.984375-24-24zm0 32c-4.417969 0-8-3.582031-8-8s3.582031-8 8-8 8 3.582031 8 8c-.003906 4.417969-3.582031 7.996094-8 8zm0 0" data-original="#000000" class="active-path" data-old_color="#000000" fill="#FFFFFF"/><path d="m320 152c13.253906 0 24-10.746094 24-24s-10.746094-24-24-24-24 10.746094-24 24c.015625 13.25 10.75 23.984375 24 24zm0-32c4.417969 0 8 3.582031 8 8s-3.582031 8-8 8-8-3.582031-8-8c.003906-4.417969 3.582031-7.996094 8-8zm0 0" data-original="#000000" class="active-path" data-old_color="#000000" fill="#FFFFFF"/><path d="m208 152c13.253906 0 24-10.746094 24-24s-10.746094-24-24-24-24 10.746094-24 24c.015625 13.25 10.75 23.984375 24 24zm0-32c4.417969 0 8 3.582031 8 8s-3.582031 8-8 8-8-3.582031-8-8c.003906-4.417969 3.582031-7.996094 8-8zm0 0" data-original="#000000" class="active-path" data-old_color="#000000" fill="#FFFFFF"/><path d="m96 328c-13.253906 0-24 10.746094-24 24s10.746094 24 24 24 24-10.746094 24-24c-.015625-13.25-10.75-23.984375-24-24zm0 32c-4.417969 0-8-3.582031-8-8s3.582031-8 8-8 8 3.582031 8 8c-.003906 4.417969-3.582031 7.996094-8 8zm0 0" data-original="#000000" class="active-path" data-old_color="#000000" fill="#FFFFFF"/><path d="m208 328c-13.253906 0-24 10.746094-24 24s10.746094 24 24 24 24-10.746094 24-24c-.015625-13.25-10.75-23.984375-24-24zm0 32c-4.417969 0-8-3.582031-8-8s3.582031-8 8-8 8 3.582031 8 8c-.003906 4.417969-3.582031 7.996094-8 8zm0 0" data-original="#000000" class="active-path" data-old_color="#000000" fill="#FFFFFF"/></g> </svg>
