<?xml version="1.0"?>
<svg xmlns="http://www.w3.org/2000/svg" xmlns:xlink="http://www.w3.org/1999/xlink" version="1.1" id="Capa_1" x="0px" y="0px" viewBox="0 0 512.004 512.004" style="enable-background:new 0 0 512.004 512.004;" xml:space="preserve" width="512px" height="512px" class=""><g><g>
	<g>
		<path d="M503.469,426.667h-0.768c-2.523-15.186-11.766-28.421-25.154-36.019c-13.388-7.598-29.491-8.745-43.821-3.124    l-15.138-15.138c81.048-87.051,78.711-222.62-5.291-306.825c-0.154-0.188-0.222-0.418-0.393-0.597    c-0.171-0.179-0.41-0.239-0.597-0.393c-86.42-86.095-226.19-86.095-312.61,0c-0.188,0.154-0.418,0.222-0.597,0.393    c-0.179,0.171-0.239,0.41-0.393,0.597c-85.244,85.541-86.209,223.617-2.167,310.34L7.077,469.214    c-6.987,7.026-9.012,17.589-5.12,26.701c4.429,9.949,14.379,16.283,25.267,16.085h92.245c4.713,0,8.533-3.82,8.533-8.533    s-3.82-8.533-8.533-8.533H27.224c-4.041,0.223-7.811-2.034-9.523-5.7c-1.247-2.814-0.56-6.11,1.707-8.192l89.481-93.346    c27.331,24.338,60.295,41.483,95.915,49.886v57.353c0,9.426,7.641,17.067,17.067,17.067h247.467    c23.552-0.028,42.638-19.114,42.667-42.667V435.2C512.003,430.487,508.182,426.667,503.469,426.667z M452.269,401.074    c15.535,0,29.09,10.538,32.922,25.592h-65.843C423.18,411.612,436.735,401.074,452.269,401.074z M418.699,396.629    c-8.924,7.762-14.883,18.377-16.862,30.037H341.08c24.14-10.089,46.297-24.383,65.442-42.214L418.699,396.629z M306.921,387.183    v-0.256c-0.177-1.677-0.442-3.343-0.794-4.992c0-0.119-0.068-0.239-0.094-0.358c-0.347-1.593-0.765-3.16-1.254-4.702    c-0.085-0.256-0.196-0.495-0.282-0.751c-0.469-1.374-0.973-2.731-1.553-4.053c-0.188-0.444-0.418-0.853-0.623-1.306    c-0.521-1.092-1.041-2.176-1.63-3.217c-0.341-0.606-0.717-1.186-1.084-1.783c-0.555-0.828-1.067-1.655-1.621-2.458    c-0.486-0.7-1.007-1.365-1.527-2.039s-1.007-1.297-1.536-1.92c-0.529-0.623-1.246-1.399-1.894-2.082    c-0.521-0.546-1.05-1.084-1.587-1.604c-0.35-0.333-0.666-0.7-1.024-1.024c-0.358-0.324-0.742-0.589-1.101-0.904    c-0.597-0.512-1.203-0.998-1.818-1.485c-0.614-0.486-1.408-1.084-2.133-1.596c-0.725-0.512-1.527-1.015-2.304-1.502    c-0.631-0.393-1.254-0.794-1.894-1.152c-1.007-0.572-2.048-1.092-3.098-1.596c-0.452-0.213-0.853-0.452-1.357-0.649    c-1.323-0.589-2.679-1.109-4.062-1.587l-0.674-0.247c-1.612-0.532-3.249-0.982-4.907-1.348h-0.094    c-0.802-0.171-1.621-0.299-2.441-0.444V263.68c5.342-1.099,10.422-3.22,14.959-6.246l32.503,32.503    c-18.391,20.185-17.669,51.261,1.64,70.57c19.309,19.309,50.385,20.031,70.57,1.639l10.351,10.351    c-24.724,22.886-54.739,39.282-87.356,47.718v-27.682C307.2,390.746,307.106,388.96,306.921,387.183z M372.056,349.995    c-13.451,11.789-33.742,11.122-46.389-1.525c-12.648-12.648-13.315-32.938-1.525-46.389L372.056,349.995z M338.443,292.241    c12.388-4.592,26.315-1.547,35.657,7.795c9.342,9.342,12.386,23.269,7.795,35.657L338.443,292.241z M406.616,360.414    l-11.742-11.742c10.798-19.924,7.214-44.576-8.81-60.6c-16.024-16.024-40.676-19.608-60.6-8.81l-33.903-33.903    c3.029-4.537,5.153-9.616,6.255-14.959h44.288c4.141,24.625,25.461,42.659,50.432,42.659c24.971,0,46.291-18.034,50.432-42.659    h17.468C458.406,278.732,439.341,324.788,406.616,360.414z M425.458,230.4c-3.832,15.055-17.387,25.592-32.922,25.592    c-15.534,0-29.09-10.538-32.922-25.592H425.458z M359.615,213.333c3.832-15.055,17.387-25.592,32.922-25.592    c15.535,0,29.09,10.537,32.922,25.592H359.615z M460.589,213.333h-17.621c-4.141-24.625-25.461-42.659-50.432-42.659    c-24.971,0-46.291,18.034-50.432,42.659h-44.288c-1.099-5.342-3.22-10.422-6.246-14.959L406.642,83.294    C439.483,118.867,458.605,164.959,460.589,213.333z M264.536,17.28c48.374,1.984,94.467,21.106,130.039,53.948L279.538,186.308    c-4.55-3.034-9.644-5.159-15.002-6.255V17.28z M281.603,221.867c0,14.138-11.462,25.6-25.6,25.6c-14.139,0-25.6-11.461-25.6-25.6    s11.461-25.6,25.6-25.6C270.141,196.266,281.603,207.728,281.603,221.867z M247.469,17.28v162.773    c-5.342,1.099-10.422,3.22-14.959,6.246L117.43,71.228C153.003,38.386,199.095,19.264,247.469,17.28z M105.364,83.294    l115.081,115.081c-3.029,4.537-5.153,9.616-6.255,14.959h-34.987c0-28.277-22.923-51.2-51.2-51.2s-51.2,22.923-51.2,51.2H51.416    C53.401,164.959,72.522,118.867,105.364,83.294z M93.869,213.333c0-18.851,15.282-34.133,34.133-34.133    s34.133,15.282,34.133,34.133H93.869z M157.392,230.4c-6.021,10.554-17.238,17.069-29.389,17.069s-23.368-6.515-29.389-17.069    H157.392z M77.861,322.423C61.915,294.272,52.902,262.727,51.57,230.4h28.22c7.202,20.455,26.528,34.139,48.213,34.139    c21.686,0,41.011-13.684,48.213-34.139h37.973c1.099,5.342,3.22,10.422,6.246,14.959l-53.862,53.871    c-9.693-11.19-23.766-17.622-38.571-17.63C103.737,281.634,82.814,298.668,77.861,322.423z M106.618,359.185    c-10.146-8.161-14.738-21.402-11.822-34.093c2.915-12.691,12.825-22.601,25.516-25.516c12.691-2.915,25.932,1.676,34.093,11.822    L106.618,359.185z M123.463,366.472l38.212-38.212c0.257,1.501,0.411,3.018,0.461,4.54c0,18.851-15.282,34.133-34.133,34.133    C126.481,366.884,124.964,366.73,123.463,366.472z M204.803,392.533v27.682c-26.85-6.952-51.993-19.326-73.882-36.36    c16.363-0.885,31.307-9.574,40.17-23.357c8.864-13.783,10.57-30.984,4.587-46.241l56.832-56.832    c4.537,3.029,9.616,5.153,14.959,6.255v78.421c-0.495,0.085-0.998,0.136-1.493,0.239    C222.059,347.147,204.84,368.138,204.803,392.533z M494.936,469.333c0,14.138-11.461,25.6-25.6,25.6H221.869l0.001-100.54    c-0.078-13.253,7.015-25.513,18.543-32.051l0.247-0.128c1.401-0.723,2.856-1.337,4.352-1.835c0.853-0.307,1.749-0.597,2.654-0.853    s2.039-0.452,3.081-0.623c1.737-0.303,3.494-0.471,5.257-0.503c2.233,0.007,4.459,0.233,6.647,0.674    c0.538,0.102,1.05,0.316,1.579,0.444c1.589,0.371,3.149,0.856,4.668,1.451c0.649,0.265,1.246,0.631,1.869,0.93    c1.302,0.606,2.564,1.293,3.78,2.057c0.725,0.469,1.391,1.041,2.082,1.57c0.993,0.736,1.947,1.522,2.859,2.355    c0.973,0.972,1.888,2,2.739,3.081c0.572,0.683,1.186,1.331,1.707,2.057c0.908,1.348,1.718,2.76,2.423,4.224    c0.29,0.572,0.657,1.092,0.913,1.707c0.773,1.817,1.384,3.699,1.826,5.623c0.077,0.324,0.23,0.623,0.299,0.956    c0.491,2.303,0.739,4.651,0.742,7.006v34.133h-42.667c-4.713,0-8.533,3.82-8.533,8.533s3.82,8.533,8.533,8.533h247.467V469.333z" data-original="#000000" class="active-path" data-old_color="#000000" fill="#FFFFFF"/>
	</g>
</g></g> </svg>
