<?xml version="1.0"?>
<svg xmlns="http://www.w3.org/2000/svg" id="Layer_1" enable-background="new 0 0 512.027 512.027" height="512px" viewBox="0 0 512.027 512.027" width="512px"><g><g id="XMLID_857_"><g id="XMLID_105_"><path id="XMLID_123_" d="m501.338 280.906c-6.88-6.88-16.027-10.669-25.757-10.669s-18.876 3.789-25.757 10.668l-46.953 46.953c-15.978 15.978-35.632 26.939-57.053 32.11 1.725-4.287 2.684-8.961 2.684-13.858 0-15.455-9.301-29.076-23.696-34.702l-78.96-30.858c-35.973-14.059-76.732-9.808-109.03 11.374l-58.292 38.228-4-4c-11.522-11.52-30.266-11.519-41.786 0l-24.078 24.077c-11.52 11.52-11.52 30.264 0 41.785l111.36 111.36c5.581 5.581 13.001 8.654 20.893 8.654 7.893 0 15.313-3.074 20.893-8.654l24.077-24.077c5.58-5.581 8.654-13 8.654-20.893 0-7.12-2.509-13.85-7.096-19.198h137.613c44.816 0 86.951-17.453 118.643-49.144l57.643-57.643c6.88-6.88 10.669-16.027 10.669-25.757-.002-9.729-3.791-18.876-10.671-25.756zm-329.599 184.248-24.077 24.078c-1.803 1.803-4.2 2.796-6.75 2.796s-4.947-.993-6.75-2.796l-111.359-111.36c-3.722-3.722-3.722-9.779 0-13.5l24.077-24.077c3.722-3.722 9.779-3.723 13.501 0l111.358 111.359c1.804 1.803 2.797 4.201 2.797 6.75s-.993 4.947-2.797 6.75zm315.456-146.877-57.643 57.643c-27.913 27.913-65.025 43.286-104.5 43.286h-157.475l-74.609-74.609 54.816-35.948c26.892-17.636 60.827-21.176 90.782-9.47l78.96 30.858c6.667 2.606 10.976 8.915 10.976 16.074 0 9.516-7.742 17.257-17.258 17.257h-95.116c-5.522 0-10 4.477-10 10s4.478 10 10 10h101.017c37.726 0 73.193-14.691 99.869-41.367l46.953-46.953c3.103-3.103 7.228-4.811 11.614-4.811 4.388 0 8.512 1.708 11.614 4.811s4.812 7.227 4.812 11.614c0 4.388-1.709 8.513-4.812 11.615z" data-original="#000000" class="active-path" data-old_color="#000000" fill="#FFFFFF"/><path id="XMLID_125_" d="m256.134 171.532c-10.21 0-18.516-7.124-18.516-15.879 0-5.523-4.478-10-10-10s-10 4.477-10 10c0 16.562 12.112 30.532 28.516 34.646v3.476c0 5.523 4.478 10 10 10s10-4.477 10-10v-3.476c16.404-4.113 28.516-18.083 28.516-34.646 0-19.784-17.278-35.879-38.516-35.879-10.21 0-18.516-7.123-18.516-15.879s8.306-15.879 18.516-15.879 18.516 7.124 18.516 15.879c0 5.523 4.478 10 10 10s10-4.477 10-10c0-16.562-12.112-30.532-28.516-34.646v-3.476c0-5.523-4.478-10-10-10s-10 4.477-10 10v3.476c-16.404 4.113-28.516 18.083-28.516 34.646 0 19.784 17.278 35.879 38.516 35.879 10.21 0 18.516 7.123 18.516 15.879s-8.306 15.879-18.516 15.879z" data-original="#000000" class="active-path" data-old_color="#000000" fill="#FFFFFF"/><path id="XMLID_126_" d="m229.791 248.668c7.003 7.002 16.313 10.859 26.216 10.859s19.213-3.856 26.216-10.859l89.071-89.071c36.447-36.448 36.447-95.753-.001-132.201-15.866-15.866-36.914-25.5-59.268-27.128-19.721-1.435-39.359 3.41-56.016 13.72-21.198-13.15-46.823-17.284-71.373-11.312-5.366 1.306-8.658 6.714-7.353 12.081s6.716 8.657 12.081 7.353c21.129-5.141 43.271-.769 60.74 12.001 3.516 2.569 8.287 2.569 11.803 0 29.394-21.486 69.449-18.365 95.243 7.428 28.649 28.65 28.649 75.267 0 103.917l-89.071 89.071c-3.225 3.225-7.513 5.001-12.073 5.001-4.561 0-8.849-1.776-12.073-5.001l-89.071-89.071c-18.294-18.293-25.558-44.243-19.431-69.415 1.306-5.366-1.986-10.775-7.352-12.081-5.366-1.307-10.775 1.985-12.082 7.352-7.79 32.011 1.451 65.016 24.722 88.287z" data-original="#000000" class="active-path" data-old_color="#000000" fill="#FFFFFF"/><path id="XMLID_127_" d="m147.787 44.473c2.64 0 5.21-1.07 7.069-2.93 1.87-1.87 2.931-4.44 2.931-7.07 0-2.64-1.061-5.22-2.931-7.08-1.859-1.86-4.43-2.93-7.069-2.93-2.631 0-5.211 1.07-7.07 2.93-1.86 1.86-2.93 4.44-2.93 7.08 0 2.63 1.069 5.2 2.93 7.07 1.859 1.86 4.439 2.93 7.07 2.93z" data-original="#000000" class="active-path" data-old_color="#000000" fill="#FFFFFF"/></g></g></g> </svg>
