<?xml version="1.0"?>
<svg xmlns="http://www.w3.org/2000/svg" height="512px" viewBox="0 0 499.312 499.312" width="512px" class=""><g><path d="m379.3125 355.3125c4.40625 0 8 3.589844 8 8h16c0-10.417969-6.710938-19.214844-16-22.527344v-17.472656h-16v16h-16v24c0 13.230469 10.765625 24 24 24 4.40625 0 8 3.589844 8 8v8h-8c-4.410156 0-8-3.59375-8-8h-16c0 10.414062 6.710938 19.214844 16 22.527344v17.472656h16v-16h16v-24c0-13.234375-10.769531-24-24-24-4.410156 0-8-3.59375-8-8v-8zm0 0" data-original="#000000" class="active-path" data-old_color="#000000" fill="#FFFFFF"/><path d="m379.3125 291.3125c-48.519531 0-88 39.480469-88 88s39.480469 88 88 88 88-39.480469 88-88-39.480469-88-88-88zm0 160c-39.695312 0-72-32.304688-72-72s32.304688-72 72-72 72 32.304688 72 72-32.304688 72-72 72zm0 0" data-original="#000000" class="active-path" data-old_color="#000000" fill="#FFFFFF"/><path d="m428.136719 269.800781 58.488281-58.488281-211.3125-211.3125-275.3125 275.3125 211.3125 211.3125 58.488281-58.488281c18.75 41.878906 60.734375 71.175781 109.511719 71.175781 66.167969 0 120-53.832031 120-120 0-48.777344-29.296875-90.761719-71.175781-109.511719zm-216.824219 194.199219-188.6875-188.6875 252.6875-252.6875 188.6875 188.6875-52.511719 52.511719c-9.28125-2.59375-18.992187-4.089844-29.023437-4.351563l48.160156-48.160156-155.3125-155.3125-51.3125 51.3125 152.160156 152.160156c-7.761718.199219-15.335937 1.09375-22.664062 2.710938l-142.183594-142.183594-155.3125 155.3125 155.3125 155.3125 48.160156-48.160156c.261719 10.03125 1.757813 19.742187 4.351563 29.023437zm35.3125-356.6875 28.6875-28.6875 132.6875 132.6875-28.6875 28.6875zm-24 120 36.6875-36.6875 36.6875 36.6875-36.6875 36.6875zm25.375 48-36.6875 36.6875-36.6875-36.6875 36.6875-36.6875zm-36.6875-59.3125-36.6875-36.6875 36.6875-36.6875 36.6875 36.6875zm-48-25.375 36.6875 36.6875-36.6875 36.6875-36.6875-36.6875zm-48 48 36.6875 36.6875-36.6875 36.6875-36.6875-36.6875zm48 48 36.6875 36.6875-36.6875 36.6875-36.6875-36.6875zm48 48 36.6875 36.6875-36.6875 36.6875-36.6875-36.6875zm50.007812 23.367188-2.007812 2.007812-36.6875-36.6875 36.6875-36.6875 22.710938 22.710938c-10.253907 14.222656-17.472657 30.734374-20.703126 48.65625zm30.945313-61.039063-21.640625-21.640625 36.6875-36.6875 28.847656 28.847656c-16.785156 6.496094-31.726562 16.632813-43.894531 29.480469zm87.046875 186.359375c-57.34375 0-104-46.65625-104-104s46.65625-104 104-104 104 46.65625 104 104-46.65625 104-104 104zm0 0" data-original="#000000" class="active-path" data-old_color="#000000" fill="#FFFFFF"/><path d="m219.3125 179.3125c0 4.417969-3.582031 8-8 8s-8-3.582031-8-8 3.582031-8 8-8 8 3.582031 8 8zm0 0" data-original="#000000" class="active-path" data-old_color="#000000" fill="#FFFFFF"/><path d="m219.3125 275.3125c0 4.417969-3.582031 8-8 8s-8-3.582031-8-8 3.582031-8 8-8 8 3.582031 8 8zm0 0" data-original="#000000" class="active-path" data-old_color="#000000" fill="#FFFFFF"/><path d="m219.3125 371.3125c0 4.417969-3.582031 8-8 8s-8-3.582031-8-8 3.582031-8 8-8 8 3.582031 8 8zm0 0" data-original="#000000" class="active-path" data-old_color="#000000" fill="#FFFFFF"/></g> </svg>
