<?xml version="1.0"?>
<svg xmlns="http://www.w3.org/2000/svg" height="512px" viewBox="0 0 512 512" width="512px"><g><path d="m422 334.640625 88.714844-88.714844-21.214844-21.210937 22.105469-22.109375-21.210938-21.210938-22.109375 22.105469-21.210937-21.214844-25.074219 25.074219v-207.359375h-422v512h422zm46.285156-88.714844-122.734375 122.734375-31.816406 10.605469 10.605469-31.820313 122.734375-122.730468zm-169.925781 85.074219h-26.359375v-60h60v26.359375zm-21.453125 63.882812-4.90625 4.902344v-38.785156h16.199219zm-34.90625-63.882812h-61v-60h61zm90-90h-60v-60h60zm-90 0h-61v-60h61zm-91 0h-61v-60h61zm-61 30h61v60h-61zm0 90h61v60h-61zm91 0h61v60h-61zm117.117188 55.09375 33.882812-11.292969v16.199219h-38.785156zm-268.117188 65.90625v-452h362v207.359375l-30 30v-116.359375h-302v300h302v-56.359375l30-30v117.359375zm0 0" data-original="#000000" class="active-path" data-old_color="#000000" fill="#FFFFFF"/><path d="m90 60h242v30h-242zm0 0" data-original="#000000" class="active-path" data-old_color="#000000" fill="#FFFFFF"/></g> </svg>
